<?xml version="1.0" encoding="UTF-8"?><svg id="Layer_1" xmlns="http://www.w3.org/2000/svg" viewBox="0 0 334.35 69.05"><path d="M328.01,54.49c.23.19,1.85,2.92,1.88,1.17.02-1.3-1.3-3.37-2.23-3.78-.01,0-.03-.01-.04-.01-.06-.03-.21-.08-.27-.09-.04-.01-.07-.02-.11-.03-.54-.08-2.49-.17-2.59-.07.07,2.42,2.33,1.96,3.36,2.81Z" style="fill:#f59915;"/><path d="M334.33.5h-6.81l-10.32,20.13-10.53-20.13-6.84.04,13.9,26.15v18.7s-.03.43.57.96c.16.14.81.23.74.57-.32.68-.66,1.34-1.14,1.85-1.54,1.62-3.09,1.21-4.87,1.5-.5.08-1.33.53-1.71.56-.09,0-.16-.08-.17-.19h-.07c-.39.71-.82.77-1.34,1.31-.18.19-.97,1.44-1.1,1.41-.26-.49-.45-1.07-.72-1.55-.27-.47-.85-.72-.82-1.36h-.07c.02,1.14,1.55,1.86,1.37,3.19.72-.39.99-1.19,1.61-1.78,2.61-2.48,6.31-.49,8.43-3.54-2.11,3.06-5.83,1.07-8.43,3.55-.62.59-.89,1.39-1.61,1.78-.06.03-.13.05-.21.09l-1.49.88h-.01s1.51-.89,1.51-.89c-.26.14-.8.2-1.13.38-.65.35-1.25.87-1.88,1.27l3.32-1.08c.65,2.32-1.91,2.94-2.71,4.45l2.71-2.67-.24,2.32s0,.02,0,.03c-.18.61-.67,1.45-.82,2.02-.02.08-.19.2.03.23.29-.05,1.36-2.4,1.47-2.86.69-2.72-.25-4,2.19-5.67,2.1-1.44,4.72-.62,6.99-2.25.55-.4.93-.73,1.34-1.41.1.48-.54.7-.65,1.13-2.67,1.93-3.39,4.73-5,7.64-.94,1.7-2.48,2.72-3.12,4.74.81-1.76,2.69-2.71,3.53-4.27.47-.87.79-2.22,1.3-3.19,1.36-2.57,3.59-3.81,5.21-6.05h.07c.13-.03.11,0,.14.14.06.31.06,5.24,0,5.63-.02.13-.2.47-.21.52,0,.02-.1.34-.14.47-.46,1.71-1.27,3.11-2.06,4.55l2.12-3.42c.19.65.21,2.24.14,3-.04.39-.16.52-.21.75-.07.36-.11.72-.27,1.03-.02.09-.05.19-.07.28-.09.38-.19.76-.27,1.13-.15.7-.41,1.43-.48,2.16l.1,3c0-1.3.08-2.25.38-3.47.08-.33.97-3.09,1.1-3.09.19-.03.12.09.14.23.08.5.18,1.98.21,2.53.03.62-.15,5,.03,5.11.05.03.41.01.45-.05l-.1-7.27c1.11,1.06,2.23,2.28,2.88,3.94.06-.01.03-.2.03-.28-.73-2.12-2.69-3.65-3.02-5.53-.61-2.22-.1-6.06-.07-8.44h.07l-.03-.28c.11.06.09.26.1.28.62,1.11,1.95,4.4,2.33,5.72.07.24.13.33.21.66.24,1.07.33,2.32.48,3.42.25-1.81-.14-3.55-.62-5.2-.1-.37-.44-.91-.34-1.31.09-.13.81.72.93.84.43.47,1.12,1.32,1.47,1.88-.01-.05,0-.13,0-.19-.09-.04-.06-.09-.07-.09-.17-.1-2.64-3.13-2.81-3.42-.22-.38-.95-2.2-1.1-2.67-.1-.33-.18-.6-.27-.94-.08-.29-.29-1.35-.34-1.69-.05-.31-.45-1.65-.31-1.81.09-.09.23-.07.27.07.71,2.62,1.13,4.41,3.46,4.83,0,0,0,0,.01,0,.55.61,3.16-.07,3.42.32.02.04.13.7.27.94.97,1.64,1.89,2.73,2.67,4.78.55,1.45.97,2.98.99,4.64.24-3.19-1.51-5.83-2.64-8.39.58.37,1.3.26,1.88.61.68.4,1.18,1.94,1.92,1.97.35.02.24-.69.57.26,0,.01,0,.02,0,.03,0,.01,0,.02,0,.03.18,1.28.15,2.63.37,3.9.25,0,.13-6.18-.45-6.66.38,1.54.47,3.27.38,4.88,0-.01,0-.02,0-.04.09-1.6,0-3.31-.38-4.83-.47-1.92-1.42-2.83-2.88-3.19-1.84-.21-3.99.39-5.79.09-.3-.05-.72-.29-.99-.47-1.39-.91-.98-3.33-.69-4.97,0,0,0,0,0,0h0l.07-17.05c4.34-9.11,10.03-17.96,14.26-27.08.05-.11.36-.69.25-.75ZM327.24,51.75s.07.02.11.03c.06.02.21.07.27.09.01,0,.03,0,.04.01.92.41,2.25,2.48,2.23,3.78-.03,1.74-1.66-.98-1.88-1.17-1.03-.85-3.29-.4-3.36-2.81.1-.1,2.05,0,2.59.07Z" style="fill:#f59915;"/><path d="M320.44,50.36c.27.18.7.42.99.47,1.8.3,3.95-.3,5.79-.09-2.24-.56-4.57.53-6.79-.38Z" style="fill:#f59915;"/><path d="M23.8,45.38L4.46,20.55h7.16c8.74,0,12.18-1.95,12.18-8.74,0-5.39-3.72-7.9-10.69-7.9H3.44v41.47H0V.93h12.83c9.48,0,14.23,3.63,14.23,10.97,0,8.55-5.67,11.62-13.48,11.62h-3.07l17.67,21.85h-4.37Z" style="fill:#fff;"/><path d="M44.35,45.38V.93h26.97v2.98h-23.53v17.02h21.48v3.07h-21.48v18.5h23.53v2.88h-26.97Z" style="fill:#fff;"/><path d="M91.5,3.91v17.02h20.46v3.07h-20.46v21.39h-3.44V.93h25.66v2.98h-22.22Z" style="fill:#fff;"/><path d="M130.37,45.38V.93h3.44v41.57h20.36v2.88h-23.8Z" style="fill:#fff;"/><path d="M169.89,45.38V.93h26.97v2.98h-23.53v17.02h21.48v3.07h-21.48v18.5h23.53v2.88h-26.97Z" style="fill:#fff;"/><path d="M245.02,44.17c-3.44,1.39-7.53,2.14-12.27,2.14-13.76,0-21.39-8.37-21.39-23.06S218.98,0,232.74,0c4.74,0,8.83.84,12.27,2.14v3.44c-4.74-2.05-8-2.7-12.09-2.7-11.44,0-18.04,6.7-18.04,20.36s7.07,20.18,18.04,20.18c4.09,0,7.35-.47,12.09-2.51v3.26Z" style="fill:#fff;"/><path d="M276.54,3.91v41.47h-3.44V3.91h-13.3V.93h30.31v2.98h-13.58Z" style="fill:#fff;"/></svg>